<?xml version="1.0" encoding="utf-8"?>
<COLLADA xmlns="http://www.collada.org/2005/11/COLLADASchema" version="1.4.1" xmlns:xsi="http://www.w3.org/2001/XMLSchema-instance">
  <asset>
    <contributor>
      <author>Blender User</author>
      <authoring_tool>Blender 3.0.1</authoring_tool>
    </contributor>
    <created>2026-05-11T10:33:23</created>
    <modified>2026-05-11T10:33:23</modified>
    <unit name="meter" meter="1"/>
    <up_axis>Z_UP</up_axis>
  </asset>
  <library_effects>
    <effect id="Material-effect">
      <profile_COMMON>
        <technique sid="common">
          <lambert>
            <emission>
              <color sid="emission">0 0 0 1</color>
            </emission>
            <diffuse>
              <color sid="diffuse">0.1106886 0.1106886 0.1106886 1</color>
            </diffuse>
            <index_of_refraction>
              <float sid="ior">1.45</float>
            </index_of_refraction>
          </lambert>
        </technique>
      </profile_COMMON>
    </effect>
  </library_effects>
  <library_images/>
  <library_materials>
    <material id="Material-material" name="Material">
      <instance_effect url="#Material-effect"/>
    </material>
  </library_materials>
  <library_geometries>
    <geometry id="Cone_001-mesh" name="Cone.001">
      <mesh>
        <source id="Cone_001-mesh-positions">
          <float_array id="Cone_001-mesh-positions-array" count="24">0 0.35 -0.4 0 0.15 0.4 0.35 0 -0.4 0.15 0 0.4 0 -0.35 -0.4 0 -0.15 0.4 -0.35 0 -0.4 -0.15 0 0.4</float_array>
          <technique_common>
            <accessor source="#Cone_001-mesh-positions-array" count="8" stride="3">
              <param name="X" type="float"/>
              <param name="Y" type="float"/>
              <param name="Z" type="float"/>
            </accessor>
          </technique_common>
        </source>
        <source id="Cone_001-mesh-normals">
          <float_array id="Cone_001-mesh-normals-array" count="30">0.6963107 0.6963106 0.1740776 0.6963106 -0.6963108 0.1740776 0 0 1 -0.6963107 -0.6963106 0.1740776 -0.6963106 0.6963106 0.1740776 0 0 -1 0.6963106 0.6963106 0.1740776 0.6963106 -0.6963106 0.1740776 -0.6963106 -0.6963106 0.1740776 -0.6963106 0.6963106 0.1740776</float_array>
          <technique_common>
            <accessor source="#Cone_001-mesh-normals-array" count="10" stride="3">
              <param name="X" type="float"/>
              <param name="Y" type="float"/>
              <param name="Z" type="float"/>
            </accessor>
          </technique_common>
        </source>
        <source id="Cone_001-mesh-map-0">
          <float_array id="Cone_001-mesh-map-0-array" count="72">1 1 0.75 0.5 1 0.5 0.75 0.5 0.5 1 0.5 0.5 0.25 0.49 0.25 0.00999999 0.49 0.25 0.5 1 0.25 0.5 0.5 0.5 0.25 1 0 0.5 0.25 0.5 0.99 0.25 0.51 0.25 0.75 0.49 1 1 0.75 1 0.75 0.5 0.75 0.5 0.75 1 0.5 1 0.25 0.49 0.00999999 0.25 0.25 0.00999999 0.5 1 0.25 1 0.25 0.5 0.25 1 0 1 0 0.5 0.99 0.25 0.75 0.00999999 0.51 0.25</float_array>
          <technique_common>
            <accessor source="#Cone_001-mesh-map-0-array" count="36" stride="2">
              <param name="S" type="float"/>
              <param name="T" type="float"/>
            </accessor>
          </technique_common>
        </source>
        <vertices id="Cone_001-mesh-vertices">
          <input semantic="POSITION" source="#Cone_001-mesh-positions"/>
        </vertices>
        <triangles material="Material-material" count="12">
          <input semantic="VERTEX" source="#Cone_001-mesh-vertices" offset="0"/>
          <input semantic="NORMAL" source="#Cone_001-mesh-normals" offset="1"/>
          <input semantic="TEXCOORD" source="#Cone_001-mesh-map-0" offset="2" set="0"/>
          <p>1 0 0 2 0 1 0 0 2 2 1 3 5 1 4 4 1 5 1 2 6 5 2 7 3 2 8 5 3 9 6 3 10 4 3 11 7 4 12 0 4 13 6 4 14 2 5 15 6 5 16 0 5 17 1 6 18 3 6 19 2 6 20 2 7 21 3 7 22 5 7 23 1 2 24 7 2 25 5 2 26 5 8 27 7 8 28 6 8 29 7 9 30 1 9 31 0 9 32 2 5 33 4 5 34 6 5 35</p>
        </triangles>
      </mesh>
    </geometry>
  </library_geometries>
  <library_visual_scenes>
    <visual_scene id="Scene" name="Scene">
      <node id="Cone" name="Cone" type="NODE">
        <matrix sid="transform">0.7161207 -0.6979765 0 0 0.6979765 0.7161207 0 0 0 0 1 0.4 0 0 0 1</matrix>
        <instance_geometry url="#Cone_001-mesh" name="Cone">
          <bind_material>
            <technique_common>
              <instance_material symbol="Material-material" target="#Material-material">
                <bind_vertex_input semantic="UVMap" input_semantic="TEXCOORD" input_set="0"/>
              </instance_material>
            </technique_common>
          </bind_material>
        </instance_geometry>
      </node>
    </visual_scene>
  </library_visual_scenes>
  <scene>
    <instance_visual_scene url="#Scene"/>
  </scene>
</COLLADA>